<svg id="visual" viewBox="0 0 1440 980" width="1440" height="980" xmlns="http://www.w3.org/2000/svg" xmlns:xlink="http://www.w3.org/1999/xlink" version="1.1"><g stroke-width="1" stroke-linejoin="bevel"><path d="M752 475.5L817 541.5L790 440.5Z" fill="#112e42" stroke="#112e42"></path><path d="M934 412.4L777 386.5L790 440.5Z" fill="#112e42" stroke="#112e42"></path><path d="M790 440.5L777 386.5L752 475.5Z" fill="#1d4e6b" stroke="#1d4e6b"></path><path d="M752 475.5L753 591.5L817 541.5Z" fill="#0c2435" stroke="#0c2435"></path><path d="M753 591.5L798 611.5L817 541.5Z" fill="#1d4e6b" stroke="#1d4e6b"></path><path d="M863 624.7L901 569.5L817 541.5Z" fill="#0c2435" stroke="#0c2435"></path><path d="M817 541.5L934 412.4L790 440.5Z" fill="#205a7a" stroke="#205a7a"></path><path d="M744 691.6L807 626.6L798 611.5Z" fill="#297ea6" stroke="#297ea6"></path><path d="M798 611.5L863 624.7L817 541.5Z" fill="#0c2435" stroke="#0c2435"></path><path d="M777 386.5L679 434.4L752 475.5Z" fill="#00101c" stroke="#00101c"></path><path d="M752 475.5L655 536.5L753 591.5Z" fill="#00101c" stroke="#00101c"></path><path d="M807 626.6L863 624.7L798 611.5Z" fill="#277297" stroke="#277297"></path><path d="M679 434.4L655 536.5L752 475.5Z" fill="#112e42" stroke="#112e42"></path><path d="M744 691.6L840 678.6L807 626.6Z" fill="#00101c" stroke="#00101c"></path><path d="M901 569.5L934 412.4L817 541.5Z" fill="#15384f" stroke="#15384f"></path><path d="M805 267.2L752 338.3L777 386.5Z" fill="#0c2435" stroke="#0c2435"></path><path d="M777 386.5L752 338.3L679 434.4Z" fill="#19435d" stroke="#19435d"></path><path d="M807 626.6L840 678.6L863 624.7Z" fill="#19435d" stroke="#19435d"></path><path d="M1073 671.6L1007 518.5L901 569.5Z" fill="#15384f" stroke="#15384f"></path><path d="M744 691.6L798 611.5L753 591.5Z" fill="#0c2435" stroke="#0c2435"></path><path d="M892 683.6L901 569.5L863 624.7Z" fill="#15384f" stroke="#15384f"></path><path d="M901 569.5L1007 518.5L934 412.4Z" fill="#246688" stroke="#246688"></path><path d="M666 654.7L744 691.6L753 591.5Z" fill="#246688" stroke="#246688"></path><path d="M829 720.8L892 683.6L840 678.6Z" fill="#00101c" stroke="#00101c"></path><path d="M840 678.6L892 683.6L863 624.7Z" fill="#081a28" stroke="#081a28"></path><path d="M655 536.5L666 654.7L753 591.5Z" fill="#1d4e6b" stroke="#1d4e6b"></path><path d="M872 261.4L805 267.2L777 386.5Z" fill="#297ea6" stroke="#297ea6"></path><path d="M603 307.3L583 398.4L679 434.4Z" fill="#246688" stroke="#246688"></path><path d="M744 691.6L829 720.8L840 678.6Z" fill="#246688" stroke="#246688"></path><path d="M698 276.2L679 434.4L752 338.3Z" fill="#081a28" stroke="#081a28"></path><path d="M679 434.4L535 481.5L655 536.5Z" fill="#297ea6" stroke="#297ea6"></path><path d="M655 536.5L567 661.7L666 654.7Z" fill="#1d4e6b" stroke="#1d4e6b"></path><path d="M805 267.2L698 276.2L752 338.3Z" fill="#081a28" stroke="#081a28"></path><path d="M962 257.4L872 261.4L934 412.4Z" fill="#15384f" stroke="#15384f"></path><path d="M934 412.4L872 261.4L777 386.5Z" fill="#00101c" stroke="#00101c"></path><path d="M805 267.2L864 186.3L698 276.2Z" fill="#081a28" stroke="#081a28"></path><path d="M1070 398.5L1008 349.3L934 412.4Z" fill="#205a7a" stroke="#205a7a"></path><path d="M829 720.8L849 748.7L892 683.6Z" fill="#297ea6" stroke="#297ea6"></path><path d="M1102 616.5L1071 540.6L1073 671.6Z" fill="#277297" stroke="#277297"></path><path d="M805 804.9L849 748.7L829 720.8Z" fill="#15384f" stroke="#15384f"></path><path d="M805 804.9L829 720.8L744 691.6Z" fill="#246688" stroke="#246688"></path><path d="M583 398.4L535 481.5L679 434.4Z" fill="#297ea6" stroke="#297ea6"></path><path d="M698 276.2L603 307.3L679 434.4Z" fill="#19435d" stroke="#19435d"></path><path d="M583 398.4L417 423.5L535 481.5Z" fill="#112e42" stroke="#112e42"></path><path d="M1018 722.7L901 569.5L892 683.6Z" fill="#297ea6" stroke="#297ea6"></path><path d="M1007 518.5L1070 398.5L934 412.4Z" fill="#0c2435" stroke="#0c2435"></path><path d="M535 481.5L526 527.5L655 536.5Z" fill="#112e42" stroke="#112e42"></path><path d="M1008 349.3L962 257.4L934 412.4Z" fill="#0c2435" stroke="#0c2435"></path><path d="M1123 458.5L1070 398.5L1007 518.5Z" fill="#0c2435" stroke="#0c2435"></path><path d="M1008 349.3L1006 291.3L962 257.4Z" fill="#15384f" stroke="#15384f"></path><path d="M567 661.7L653 734.8L666 654.7Z" fill="#081a28" stroke="#081a28"></path><path d="M666 654.7L653 734.8L744 691.6Z" fill="#297ea6" stroke="#297ea6"></path><path d="M1094 274.2L1006 291.3L1008 349.3Z" fill="#15384f" stroke="#15384f"></path><path d="M526 527.5L567 661.7L655 536.5Z" fill="#297ea6" stroke="#297ea6"></path><path d="M587 209.3L557 316.4L603 307.3Z" fill="#246688" stroke="#246688"></path><path d="M603 307.3L557 316.4L583 398.4Z" fill="#0c2435" stroke="#0c2435"></path><path d="M535 481.5L443 522.5L526 527.5Z" fill="#1d4e6b" stroke="#1d4e6b"></path><path d="M962 257.4L864 186.3L872 261.4Z" fill="#297ea6" stroke="#297ea6"></path><path d="M872 261.4L864 186.3L805 267.2Z" fill="#205a7a" stroke="#205a7a"></path><path d="M698 276.2L587 209.3L603 307.3Z" fill="#1d4e6b" stroke="#1d4e6b"></path><path d="M653 734.8L805 804.9L744 691.6Z" fill="#15384f" stroke="#15384f"></path><path d="M975 808.9L1018 722.7L892 683.6Z" fill="#00101c" stroke="#00101c"></path><path d="M975 808.9L892 683.6L849 748.7Z" fill="#246688" stroke="#246688"></path><path d="M526 527.5L537 673.7L567 661.7Z" fill="#297ea6" stroke="#297ea6"></path><path d="M567 661.7L544 696.6L653 734.8Z" fill="#081a28" stroke="#081a28"></path><path d="M1071 540.6L1123 458.5L1007 518.5Z" fill="#15384f" stroke="#15384f"></path><path d="M1070 398.5L1094 274.2L1008 349.3Z" fill="#205a7a" stroke="#205a7a"></path><path d="M1153 509.5L1123 458.5L1071 540.6Z" fill="#205a7a" stroke="#205a7a"></path><path d="M1073 671.6L1071 540.6L1007 518.5Z" fill="#0c2435" stroke="#0c2435"></path><path d="M1018 722.7L1073 671.6L901 569.5Z" fill="#00101c" stroke="#00101c"></path><path d="M537 673.7L544 696.6L567 661.7Z" fill="#277297" stroke="#277297"></path><path d="M653 734.8L662 841.8L805 804.9Z" fill="#1d4e6b" stroke="#1d4e6b"></path><path d="M1102 616.5L1153 509.5L1071 540.6Z" fill="#081a28" stroke="#081a28"></path><path d="M598 163.1L587 209.3L698 276.2Z" fill="#0c2435" stroke="#0c2435"></path><path d="M1073 671.6L1100 685.7L1102 616.5Z" fill="#205a7a" stroke="#205a7a"></path><path d="M1102 616.5L1241 561.5L1153 509.5Z" fill="#246688" stroke="#246688"></path><path d="M1018 722.7L1100 685.7L1073 671.6Z" fill="#297ea6" stroke="#297ea6"></path><path d="M417 423.5L443 522.5L535 481.5Z" fill="#277297" stroke="#277297"></path><path d="M526 527.5L445 593.6L537 673.7Z" fill="#19435d" stroke="#19435d"></path><path d="M397 713.6L478 795.9L544 696.6Z" fill="#0c2435" stroke="#0c2435"></path><path d="M417 423.5L583 398.4L557 316.4Z" fill="#112e42" stroke="#112e42"></path><path d="M924 845.9L975 808.9L849 748.7Z" fill="#205a7a" stroke="#205a7a"></path><path d="M1152 785.7L1134 703.7L1100 685.7Z" fill="#277297" stroke="#277297"></path><path d="M1265 414.5L1094 274.2L1070 398.5Z" fill="#1d4e6b" stroke="#1d4e6b"></path><path d="M1006 291.3L1095 256.4L962 257.4Z" fill="#246688" stroke="#246688"></path><path d="M962 257.4L941 143.2L864 186.3Z" fill="#19435d" stroke="#19435d"></path><path d="M1130 228.3L1094 274.2L1279 258.4Z" fill="#246688" stroke="#246688"></path><path d="M443 522.5L445 593.6L526 527.5Z" fill="#15384f" stroke="#15384f"></path><path d="M805 804.9L924 845.9L849 748.7Z" fill="#00101c" stroke="#00101c"></path><path d="M1027 96.2L941 143.2L962 257.4Z" fill="#297ea6" stroke="#297ea6"></path><path d="M864 186.3L598 163.1L698 276.2Z" fill="#00101c" stroke="#00101c"></path><path d="M1130 228.3L1095 256.4L1094 274.2Z" fill="#246688" stroke="#246688"></path><path d="M1094 274.2L1095 256.4L1006 291.3Z" fill="#1d4e6b" stroke="#1d4e6b"></path><path d="M574 817.9L653 734.8L544 696.6Z" fill="#246688" stroke="#246688"></path><path d="M574 817.9L662 841.8L653 734.8Z" fill="#19435d" stroke="#19435d"></path><path d="M855 980L957 885.8L924 845.9Z" fill="#205a7a" stroke="#205a7a"></path><path d="M587 209.3L487 271.4L557 316.4Z" fill="#00101c" stroke="#00101c"></path><path d="M487 271.4L477 286.4L557 316.4Z" fill="#15384f" stroke="#15384f"></path><path d="M748 0L598 163.1L864 186.3Z" fill="#0c2435" stroke="#0c2435"></path><path d="M587 209.3L488 191.2L487 271.4Z" fill="#112e42" stroke="#112e42"></path><path d="M957 885.8L950 852.9L924 845.9Z" fill="#277297" stroke="#277297"></path><path d="M924 845.9L950 852.9L975 808.9Z" fill="#277297" stroke="#277297"></path><path d="M1152 785.7L1100 685.7L1018 722.7Z" fill="#112e42" stroke="#112e42"></path><path d="M477 286.4L417 423.5L557 316.4Z" fill="#15384f" stroke="#15384f"></path><path d="M443 522.5L363 526.6L445 593.6Z" fill="#297ea6" stroke="#297ea6"></path><path d="M1027 96.2L934 120.2L941 143.2Z" fill="#0c2435" stroke="#0c2435"></path><path d="M941 143.2L910 102.1L864 186.3Z" fill="#297ea6" stroke="#297ea6"></path><path d="M1053 871.8L1018 722.7L975 808.9Z" fill="#246688" stroke="#246688"></path><path d="M1100 685.7L1134 703.7L1102 616.5Z" fill="#112e42" stroke="#112e42"></path><path d="M478 795.9L574 817.9L544 696.6Z" fill="#00101c" stroke="#00101c"></path><path d="M934 120.2L910 102.1L941 143.2Z" fill="#205a7a" stroke="#205a7a"></path><path d="M1265 414.5L1070 398.5L1123 458.5Z" fill="#081a28" stroke="#081a28"></path><path d="M1095 256.4L1027 96.2L962 257.4Z" fill="#15384f" stroke="#15384f"></path><path d="M887 0L879 44.1L990 0Z" fill="#1d4e6b" stroke="#1d4e6b"></path><path d="M855 980L924 845.9L805 804.9Z" fill="#277297" stroke="#277297"></path><path d="M950 852.9L1053 871.8L975 808.9Z" fill="#081a28" stroke="#081a28"></path><path d="M487 271.4L439 234.3L477 286.4Z" fill="#00101c" stroke="#00101c"></path><path d="M477 286.4L390 306.3L417 423.5Z" fill="#0c2435" stroke="#0c2435"></path><path d="M598 163.1L488 191.2L587 209.3Z" fill="#277297" stroke="#277297"></path><path d="M417 423.5L363 526.6L443 522.5Z" fill="#15384f" stroke="#15384f"></path><path d="M397 713.6L544 696.6L537 673.7Z" fill="#277297" stroke="#277297"></path><path d="M321 408.5L363 526.6L417 423.5Z" fill="#205a7a" stroke="#205a7a"></path><path d="M397 713.6L537 673.7L445 593.6Z" fill="#205a7a" stroke="#205a7a"></path><path d="M574 817.9L537 870.8L662 841.8Z" fill="#205a7a" stroke="#205a7a"></path><path d="M488 191.2L439 234.3L487 271.4Z" fill="#15384f" stroke="#15384f"></path><path d="M1134 703.7L1241 561.5L1102 616.5Z" fill="#277297" stroke="#277297"></path><path d="M1153 509.5L1265 414.5L1123 458.5Z" fill="#246688" stroke="#246688"></path><path d="M517 76.1L475 186.2L488 191.2Z" fill="#205a7a" stroke="#205a7a"></path><path d="M488 191.2L475 186.2L439 234.3Z" fill="#277297" stroke="#277297"></path><path d="M517 76.1L488 191.2L598 163.1Z" fill="#1d4e6b" stroke="#1d4e6b"></path><path d="M439 234.3L390 306.3L477 286.4Z" fill="#112e42" stroke="#112e42"></path><path d="M990 0L910 102.1L934 120.2Z" fill="#081a28" stroke="#081a28"></path><path d="M910 102.1L879 44.1L864 186.3Z" fill="#277297" stroke="#277297"></path><path d="M1130 228.3L1027 96.2L1095 256.4Z" fill="#19435d" stroke="#19435d"></path><path d="M957 885.8L1053 871.8L950 852.9Z" fill="#19435d" stroke="#19435d"></path><path d="M1134 703.7L1336 630.6L1241 561.5Z" fill="#1d4e6b" stroke="#1d4e6b"></path><path d="M1057 871.8L1152 785.7L1018 722.7Z" fill="#0c2435" stroke="#0c2435"></path><path d="M1125 893.8L1057 871.8L1065 980Z" fill="#1d4e6b" stroke="#1d4e6b"></path><path d="M1053 871.8L1057 871.8L1018 722.7Z" fill="#15384f" stroke="#15384f"></path><path d="M357 705.7L397 713.6L445 593.6Z" fill="#00101c" stroke="#00101c"></path><path d="M478 795.9L537 870.8L574 817.9Z" fill="#277297" stroke="#277297"></path><path d="M662 841.8L785 980L805 804.9Z" fill="#15384f" stroke="#15384f"></path><path d="M548 923.9L537 870.8L465 980Z" fill="#205a7a" stroke="#205a7a"></path><path d="M1288 520.5L1265 414.5L1153 509.5Z" fill="#1d4e6b" stroke="#1d4e6b"></path><path d="M1336 630.6L1288 520.5L1241 561.5Z" fill="#19435d" stroke="#19435d"></path><path d="M1241 561.5L1288 520.5L1153 509.5Z" fill="#246688" stroke="#246688"></path><path d="M390 306.3L321 408.5L417 423.5Z" fill="#205a7a" stroke="#205a7a"></path><path d="M363 526.6L357 705.7L445 593.6Z" fill="#205a7a" stroke="#205a7a"></path><path d="M700 980L785 980L662 841.8Z" fill="#1d4e6b" stroke="#1d4e6b"></path><path d="M1065 980L1057 871.8L1053 871.8Z" fill="#19435d" stroke="#19435d"></path><path d="M785 980L855 980L805 804.9Z" fill="#081a28" stroke="#081a28"></path><path d="M233 711.8L357 705.7L363 526.6Z" fill="#081a28" stroke="#081a28"></path><path d="M397 713.6L329 747.8L478 795.9Z" fill="#081a28" stroke="#081a28"></path><path d="M879 44.1L748 0L864 186.3Z" fill="#112e42" stroke="#112e42"></path><path d="M990 0L879 44.1L910 102.1Z" fill="#205a7a" stroke="#205a7a"></path><path d="M879 44.1L753 -8.9L748 0Z" fill="#205a7a" stroke="#205a7a"></path><path d="M573 980L700 980L662 841.8Z" fill="#081a28" stroke="#081a28"></path><path d="M748 0L682 6.1L598 163.1Z" fill="#15384f" stroke="#15384f"></path><path d="M465 980L537 870.8L432 980Z" fill="#00101c" stroke="#00101c"></path><path d="M537 870.8L548 923.9L662 841.8Z" fill="#19435d" stroke="#19435d"></path><path d="M887 0L753 -8.9L879 44.1Z" fill="#246688" stroke="#246688"></path><path d="M748 0L753 -8.9L682 6.1Z" fill="#297ea6" stroke="#297ea6"></path><path d="M575 0L517 76.1L598 163.1Z" fill="#0c2435" stroke="#0c2435"></path><path d="M475 186.2L391 189.2L439 234.3Z" fill="#081a28" stroke="#081a28"></path><path d="M439 234.3L391 189.2L390 306.3Z" fill="#0c2435" stroke="#0c2435"></path><path d="M261 291.4L244 351.3L321 408.5Z" fill="#00101c" stroke="#00101c"></path><path d="M321 408.5L298 481.5L363 526.6Z" fill="#246688" stroke="#246688"></path><path d="M517 76.1L391 189.2L475 186.2Z" fill="#246688" stroke="#246688"></path><path d="M1057 871.8L1125 893.8L1152 785.7Z" fill="#277297" stroke="#277297"></path><path d="M1152 785.7L1259 793.7L1134 703.7Z" fill="#277297" stroke="#277297"></path><path d="M1010 980L1053 871.8L957 885.8Z" fill="#1d4e6b" stroke="#1d4e6b"></path><path d="M1027 96.2L990 0L934 120.2Z" fill="#15384f" stroke="#15384f"></path><path d="M887 0L990 0L753 -8.9Z" fill="#1d4e6b" stroke="#1d4e6b"></path><path d="M1006 0L990 0L1027 96.2Z" fill="#0c2435" stroke="#0c2435"></path><path d="M1150 93.1L1027 96.2L1130 228.3Z" fill="#15384f" stroke="#15384f"></path><path d="M1254 97.2L1150 93.1L1130 228.3Z" fill="#081a28" stroke="#081a28"></path><path d="M855 980L1010 980L957 885.8Z" fill="#19435d" stroke="#19435d"></path><path d="M1265 414.5L1279 258.4L1094 274.2Z" fill="#0c2435" stroke="#0c2435"></path><path d="M1327 332.4L1279 258.4L1265 414.5Z" fill="#00101c" stroke="#00101c"></path><path d="M1061 8.1L1006 0L1027 96.2Z" fill="#112e42" stroke="#112e42"></path><path d="M990 0L1006 0L753 -8.9Z" fill="#15384f" stroke="#15384f"></path><path d="M233 711.8L329 747.8L357 705.7Z" fill="#297ea6" stroke="#297ea6"></path><path d="M357 705.7L329 747.8L397 713.6Z" fill="#1d4e6b" stroke="#1d4e6b"></path><path d="M465 980L573 980L548 923.9Z" fill="#0c2435" stroke="#0c2435"></path><path d="M548 923.9L573 980L662 841.8Z" fill="#00101c" stroke="#00101c"></path><path d="M438 -9.9L356 186.3L391 189.2Z" fill="#00101c" stroke="#00101c"></path><path d="M391 189.2L356 186.3L390 306.3Z" fill="#0c2435" stroke="#0c2435"></path><path d="M321 408.5L244 351.3L298 481.5Z" fill="#19435d" stroke="#19435d"></path><path d="M682 6.1L575 0L598 163.1Z" fill="#112e42" stroke="#112e42"></path><path d="M517 76.1L438 -9.9L391 189.2Z" fill="#15384f" stroke="#15384f"></path><path d="M753 -8.9L575 0L682 6.1Z" fill="#277297" stroke="#277297"></path><path d="M438 -9.9L565 0L575 0Z" fill="#112e42" stroke="#112e42"></path><path d="M575 0L565 0L517 76.1Z" fill="#19435d" stroke="#19435d"></path><path d="M1222 847.9L1152 785.7L1125 893.8Z" fill="#297ea6" stroke="#297ea6"></path><path d="M1232 836.8L1259 793.7L1152 785.7Z" fill="#112e42" stroke="#112e42"></path><path d="M1150 93.1L1061 8.1L1027 96.2Z" fill="#1d4e6b" stroke="#1d4e6b"></path><path d="M1343 335.3L1265 414.5L1440 416.4Z" fill="#112e42" stroke="#112e42"></path><path d="M1343 335.3L1327 332.4L1265 414.5Z" fill="#112e42" stroke="#112e42"></path><path d="M1196 980L1222 847.9L1125 893.8Z" fill="#112e42" stroke="#112e42"></path><path d="M1222 847.9L1232 836.8L1152 785.7Z" fill="#081a28" stroke="#081a28"></path><path d="M1259 793.7L1336 630.6L1134 703.7Z" fill="#246688" stroke="#246688"></path><path d="M1010 980L1065 980L1053 871.8Z" fill="#112e42" stroke="#112e42"></path><path d="M268 134.1L308 226.2L356 186.3Z" fill="#081a28" stroke="#081a28"></path><path d="M356 186.3L308 226.2L390 306.3Z" fill="#00101c" stroke="#00101c"></path><path d="M1232 836.8L1268 802.8L1259 793.7Z" fill="#205a7a" stroke="#205a7a"></path><path d="M1259 793.7L1396 700.6L1336 630.6Z" fill="#205a7a" stroke="#205a7a"></path><path d="M1328 831.9L1268 802.8L1232 836.8Z" fill="#00101c" stroke="#00101c"></path><path d="M1440 460.5L1265 414.5L1288 520.5Z" fill="#00101c" stroke="#00101c"></path><path d="M1350 317.3L1311 235.2L1279 258.4Z" fill="#205a7a" stroke="#205a7a"></path><path d="M1279 258.4L1254 97.2L1130 228.3Z" fill="#112e42" stroke="#112e42"></path><path d="M1350 317.3L1279 258.4L1327 332.4Z" fill="#277297" stroke="#277297"></path><path d="M1150 93.1L1243 0L1061 8.1Z" fill="#0c2435" stroke="#0c2435"></path><path d="M261 291.4L321 408.5L390 306.3Z" fill="#277297" stroke="#277297"></path><path d="M298 481.5L198 542.5L363 526.6Z" fill="#19435d" stroke="#19435d"></path><path d="M1440 333.3L1350 317.3L1343 335.3Z" fill="#277297" stroke="#277297"></path><path d="M1343 335.3L1350 317.3L1327 332.4Z" fill="#205a7a" stroke="#205a7a"></path><path d="M308 226.2L261 291.4L390 306.3Z" fill="#00101c" stroke="#00101c"></path><path d="M438 -9.9L472 0L565 0Z" fill="#246688" stroke="#246688"></path><path d="M565 0L472 0L517 76.1Z" fill="#297ea6" stroke="#297ea6"></path><path d="M432 980L537 870.8L350 907.9Z" fill="#246688" stroke="#246688"></path><path d="M1245 60.1L1247 0L1243 0Z" fill="#19435d" stroke="#19435d"></path><path d="M1311 235.2L1254 97.2L1279 258.4Z" fill="#297ea6" stroke="#297ea6"></path><path d="M198 369.5L198 542.5L298 481.5Z" fill="#1d4e6b" stroke="#1d4e6b"></path><path d="M350 907.9L537 870.8L478 795.9Z" fill="#1d4e6b" stroke="#1d4e6b"></path><path d="M198 542.5L233 711.8L363 526.6Z" fill="#0c2435" stroke="#0c2435"></path><path d="M233 711.8L254 764.7L329 747.8Z" fill="#112e42" stroke="#112e42"></path><path d="M350 907.9L478 795.9L329 747.8Z" fill="#205a7a" stroke="#205a7a"></path><path d="M295 891.9L350 907.9L329 747.8Z" fill="#081a28" stroke="#081a28"></path><path d="M202 279.4L198 369.5L244 351.3Z" fill="#15384f" stroke="#15384f"></path><path d="M244 351.3L198 369.5L298 481.5Z" fill="#19435d" stroke="#19435d"></path><path d="M202 279.4L244 351.3L261 291.4Z" fill="#15384f" stroke="#15384f"></path><path d="M215 272.2L261 291.4L308 226.2Z" fill="#297ea6" stroke="#297ea6"></path><path d="M1245 60.1L1254 97.2L1344 11.1Z" fill="#081a28" stroke="#081a28"></path><path d="M1254 97.2L1245 60.1L1150 93.1Z" fill="#081a28" stroke="#081a28"></path><path d="M753 -8.9L438 -9.9L575 0Z" fill="#112e42" stroke="#112e42"></path><path d="M472 0L438 -9.9L517 76.1Z" fill="#081a28" stroke="#081a28"></path><path d="M268 134.1L215 272.2L308 226.2Z" fill="#1d4e6b" stroke="#1d4e6b"></path><path d="M1200 980L1328 831.9L1222 847.9Z" fill="#00101c" stroke="#00101c"></path><path d="M1222 847.9L1328 831.9L1232 836.8Z" fill="#0c2435" stroke="#0c2435"></path><path d="M1268 802.8L1396 700.6L1259 793.7Z" fill="#0c2435" stroke="#0c2435"></path><path d="M1336 630.6L1440 492.5L1288 520.5Z" fill="#277297" stroke="#277297"></path><path d="M1065 980L1196 980L1125 893.8Z" fill="#1d4e6b" stroke="#1d4e6b"></path><path d="M1377 808.9L1396 700.6L1268 802.8Z" fill="#297ea6" stroke="#297ea6"></path><path d="M1196 980L1200 980L1222 847.9Z" fill="#297ea6" stroke="#297ea6"></path><path d="M176 105.1L202 279.4L215 272.2Z" fill="#1d4e6b" stroke="#1d4e6b"></path><path d="M215 272.2L202 279.4L261 291.4Z" fill="#00101c" stroke="#00101c"></path><path d="M1433 624.5L1440 492.5L1336 630.6Z" fill="#00101c" stroke="#00101c"></path><path d="M1350 317.3L1440 200.2L1311 235.2Z" fill="#1d4e6b" stroke="#1d4e6b"></path><path d="M1440 492.5L1440 460.5L1288 520.5Z" fill="#19435d" stroke="#19435d"></path><path d="M141 622.5L198 706.8L233 711.8Z" fill="#297ea6" stroke="#297ea6"></path><path d="M233 711.8L198 706.8L254 764.7Z" fill="#277297" stroke="#277297"></path><path d="M254 764.7L295 891.9L329 747.8Z" fill="#205a7a" stroke="#205a7a"></path><path d="M262 91.1L268 134.1L356 186.3Z" fill="#00101c" stroke="#00101c"></path><path d="M1440 460.5L1440 416.4L1265 414.5Z" fill="#0c2435" stroke="#0c2435"></path><path d="M1396 700.6L1433 624.5L1336 630.6Z" fill="#00101c" stroke="#00101c"></path><path d="M193 811.9L295 891.9L254 764.7Z" fill="#081a28" stroke="#081a28"></path><path d="M350 907.9L303 980L432 980Z" fill="#246688" stroke="#246688"></path><path d="M198 542.5L141 622.5L233 711.8Z" fill="#246688" stroke="#246688"></path><path d="M198 369.5L157 534.6L198 542.5Z" fill="#00101c" stroke="#00101c"></path><path d="M106 383.5L157 534.6L198 369.5Z" fill="#246688" stroke="#246688"></path><path d="M1440 827.9L1377 808.9L1328 831.9Z" fill="#00101c" stroke="#00101c"></path><path d="M1328 831.9L1377 808.9L1268 802.8Z" fill="#00101c" stroke="#00101c"></path><path d="M1396 700.6L1440 650.7L1433 624.5Z" fill="#205a7a" stroke="#205a7a"></path><path d="M1440 416.4L1440 333.3L1343 335.3Z" fill="#112e42" stroke="#112e42"></path><path d="M1440 704.6L1440 650.7L1396 700.6Z" fill="#081a28" stroke="#081a28"></path><path d="M1433 624.5L1440 650.7L1440 492.5Z" fill="#1d4e6b" stroke="#1d4e6b"></path><path d="M1247 0L1245 60.1L1262 0Z" fill="#205a7a" stroke="#205a7a"></path><path d="M1245 60.1L1243 0L1150 93.1Z" fill="#081a28" stroke="#081a28"></path><path d="M1061 8.1L1243 0L1006 0Z" fill="#00101c" stroke="#00101c"></path><path d="M1006 0L1243 0L753 -8.9Z" fill="#15384f" stroke="#15384f"></path><path d="M1262 0L1245 60.1L1344 11.1Z" fill="#246688" stroke="#246688"></path><path d="M1243 0L1440 -4.9L753 -8.9Z" fill="#246688" stroke="#246688"></path><path d="M438 -9.9L262 91.1L356 186.3Z" fill="#246688" stroke="#246688"></path><path d="M268 134.1L176 105.1L215 272.2Z" fill="#0c2435" stroke="#0c2435"></path><path d="M1440 705.8L1440 704.6L1396 700.6Z" fill="#297ea6" stroke="#297ea6"></path><path d="M1377 808.9L1440 705.8L1396 700.6Z" fill="#19435d" stroke="#19435d"></path><path d="M1440 200.2L1254 97.2L1311 235.2Z" fill="#19435d" stroke="#19435d"></path><path d="M1247 0L1440 -4.9L1243 0Z" fill="#0c2435" stroke="#0c2435"></path><path d="M87 672.6L141 622.5L2 587.5Z" fill="#205a7a" stroke="#205a7a"></path><path d="M157 534.6L141 622.5L198 542.5Z" fill="#1d4e6b" stroke="#1d4e6b"></path><path d="M198 706.8L197 796.9L254 764.7Z" fill="#081a28" stroke="#081a28"></path><path d="M134 708.7L197 796.9L198 706.8Z" fill="#00101c" stroke="#00101c"></path><path d="M149 847.8L193 811.9L105 793.7Z" fill="#1d4e6b" stroke="#1d4e6b"></path><path d="M197 796.9L193 811.9L254 764.7Z" fill="#205a7a" stroke="#205a7a"></path><path d="M119 980L303 980L295 891.9Z" fill="#277297" stroke="#277297"></path><path d="M295 891.9L303 980L350 907.9Z" fill="#1d4e6b" stroke="#1d4e6b"></path><path d="M1440 333.3L1440 200.2L1350 317.3Z" fill="#1d4e6b" stroke="#1d4e6b"></path><path d="M141 622.5L134 708.7L198 706.8Z" fill="#0c2435" stroke="#0c2435"></path><path d="M72 248.2L106 383.5L202 279.4Z" fill="#277297" stroke="#277297"></path><path d="M202 279.4L106 383.5L198 369.5Z" fill="#297ea6" stroke="#297ea6"></path><path d="M141 622.5L87 672.6L134 708.7Z" fill="#205a7a" stroke="#205a7a"></path><path d="M438 -9.9L289 0L262 91.1Z" fill="#297ea6" stroke="#297ea6"></path><path d="M262 91.1L176 105.1L268 134.1Z" fill="#0c2435" stroke="#0c2435"></path><path d="M1427 980L1440 827.9L1328 831.9Z" fill="#1d4e6b" stroke="#1d4e6b"></path><path d="M1377 808.9L1440 827.9L1440 705.8Z" fill="#1d4e6b" stroke="#1d4e6b"></path><path d="M438 -9.9L272 0L289 0Z" fill="#15384f" stroke="#15384f"></path><path d="M289 0L272 0L262 91.1Z" fill="#1d4e6b" stroke="#1d4e6b"></path><path d="M1440 200.2L1344 11.1L1254 97.2Z" fill="#1d4e6b" stroke="#1d4e6b"></path><path d="M176 0L176 105.1L262 91.1Z" fill="#081a28" stroke="#081a28"></path><path d="M2 587.5L141 622.5L157 534.6Z" fill="#246688" stroke="#246688"></path><path d="M105 793.7L193 811.9L197 796.9Z" fill="#00101c" stroke="#00101c"></path><path d="M193 811.9L149 847.8L295 891.9Z" fill="#205a7a" stroke="#205a7a"></path><path d="M105 793.7L197 796.9L134 708.7Z" fill="#0c2435" stroke="#0c2435"></path><path d="M0 354.4L54 418.4L106 383.5Z" fill="#246688" stroke="#246688"></path><path d="M106 383.5L54 418.4L157 534.6Z" fill="#246688" stroke="#246688"></path><path d="M87 672.6L105 793.7L134 708.7Z" fill="#15384f" stroke="#15384f"></path><path d="M176 105.1L72 248.2L202 279.4Z" fill="#1d4e6b" stroke="#1d4e6b"></path><path d="M1200 980L1427 980L1328 831.9Z" fill="#112e42" stroke="#112e42"></path><path d="M272 0L176 0L262 91.1Z" fill="#205a7a" stroke="#205a7a"></path><path d="M0 174.3L11 272.3L72 248.2Z" fill="#205a7a" stroke="#205a7a"></path><path d="M438 -9.9L176 0L272 0Z" fill="#205a7a" stroke="#205a7a"></path><path d="M0 437.5L0 485.5L54 418.4Z" fill="#00101c" stroke="#00101c"></path><path d="M54 418.4L0 485.5L157 534.6Z" fill="#246688" stroke="#246688"></path><path d="M87 672.6L0 689.7L105 793.7Z" fill="#277297" stroke="#277297"></path><path d="M0 354.4L0 437.5L54 418.4Z" fill="#0c2435" stroke="#0c2435"></path><path d="M1427 980L1440 980L1440 827.9Z" fill="#205a7a" stroke="#205a7a"></path><path d="M0 485.5L2 587.5L157 534.6Z" fill="#277297" stroke="#277297"></path><path d="M1440 200.2L1440 0L1344 11.1Z" fill="#0c2435" stroke="#0c2435"></path><path d="M1344 11.1L1440 -4.9L1262 0Z" fill="#277297" stroke="#277297"></path><path d="M1262 0L1440 -4.9L1247 0Z" fill="#081a28" stroke="#081a28"></path><path d="M1440 0L1440 -4.9L1344 11.1Z" fill="#1d4e6b" stroke="#1d4e6b"></path><path d="M11 272.3L0 354.4L72 248.2Z" fill="#112e42" stroke="#112e42"></path><path d="M72 248.2L0 354.4L106 383.5Z" fill="#15384f" stroke="#15384f"></path><path d="M0 174.3L72 248.2L0 157.2Z" fill="#081a28" stroke="#081a28"></path><path d="M0 485.5L0 679.6L2 587.5Z" fill="#246688" stroke="#246688"></path><path d="M2 587.5L0 679.6L87 672.6Z" fill="#081a28" stroke="#081a28"></path><path d="M71 980L119 980L149 847.8Z" fill="#205a7a" stroke="#205a7a"></path><path d="M0 679.6L0 689.7L87 672.6Z" fill="#297ea6" stroke="#297ea6"></path><path d="M71 980L149 847.8L0 856.8Z" fill="#15384f" stroke="#15384f"></path><path d="M149 847.8L119 980L295 891.9Z" fill="#112e42" stroke="#112e42"></path><path d="M0 157.2L72 248.2L176 105.1Z" fill="#0c2435" stroke="#0c2435"></path><path d="M11 272.3L0 174.3L0 354.4Z" fill="#00101c" stroke="#00101c"></path><path d="M0 66.1L0 157.2L176 105.1Z" fill="#15384f" stroke="#15384f"></path><path d="M0 856.8L149 847.8L105 793.7Z" fill="#1d4e6b" stroke="#1d4e6b"></path><path d="M0 689.7L0 856.8L105 793.7Z" fill="#297ea6" stroke="#297ea6"></path><path d="M438 -9.9L57 0L176 0Z" fill="#0c2435" stroke="#0c2435"></path><path d="M176 0L57 0L176 105.1Z" fill="#19435d" stroke="#19435d"></path><path d="M57 0L0 66.1L176 105.1Z" fill="#00101c" stroke="#00101c"></path><path d="M0 856.8L0 980L71 980Z" fill="#277297" stroke="#277297"></path><path d="M438 -9.9L0 0L57 0Z" fill="#297ea6" stroke="#297ea6"></path><path d="M57 0L0 0L0 66.1Z" fill="#246688" stroke="#246688"></path><path d="M0 980L0 984.9L71 980Z" fill="#246688" stroke="#246688"></path><path d="M71 980L0 984.9L119 980Z" fill="#0c2435" stroke="#0c2435"></path><path d="M119 980L0 984.9L303 980Z" fill="#15384f" stroke="#15384f"></path><path d="M303 980L0 984.9L432 980Z" fill="#297ea6" stroke="#297ea6"></path><path d="M432 980L0 984.9L465 980Z" fill="#246688" stroke="#246688"></path><path d="M465 980L0 984.9L573 980Z" fill="#0c2435" stroke="#0c2435"></path><path d="M573 980L0 984.9L700 980Z" fill="#205a7a" stroke="#205a7a"></path><path d="M700 980L0 984.9L785 980Z" fill="#19435d" stroke="#19435d"></path><path d="M785 980L0 984.9L855 980Z" fill="#19435d" stroke="#19435d"></path><path d="M855 980L0 984.9L1010 980Z" fill="#0c2435" stroke="#0c2435"></path><path d="M1010 980L0 984.9L1065 980Z" fill="#15384f" stroke="#15384f"></path><path d="M1065 980L0 984.9L1196 980Z" fill="#00101c" stroke="#00101c"></path><path d="M1196 980L0 984.9L1200 980Z" fill="#081a28" stroke="#081a28"></path><path d="M1200 980L0 984.9L1427 980Z" fill="#297ea6" stroke="#297ea6"></path><path d="M1427 980L0 984.9L1440 980Z" fill="#1d4e6b" stroke="#1d4e6b"></path></g></svg>